# This file uses centimeters as units for non-parametric coordinates.

mtllib brazoInferior.mtl
g default
v 0.095626 0.030108 -0.131821
v 0.081634 0.057568 -0.131821
v 0.059842 0.079360 -0.131821
v 0.032383 0.093352 -0.131821
v 0.001943 0.098172 -0.131821
v -0.028496 0.093352 -0.131821
v -0.055956 0.079360 -0.131821
v -0.077748 0.057568 -0.131821
v -0.091739 0.030108 -0.131821
v -0.096560 -0.000331 -0.131821
v -0.091739 -0.030771 -0.131821
v -0.077748 -0.058230 -0.131821
v -0.055956 -0.080022 -0.131821
v -0.028496 -0.094013 -0.131821
v 0.001943 -0.098835 -0.131821
v 0.032383 -0.094013 -0.131821
v 0.059842 -0.080022 -0.131821
v 0.081634 -0.058230 -0.131821
v 0.095626 -0.030771 -0.131821
v 0.100447 -0.000331 -0.131821
v 0.095626 0.030108 0.160107
v 0.081634 0.057568 0.160107
v 0.059842 0.079360 0.160107
v 0.032383 0.093352 0.160107
v 0.001943 0.098172 0.160107
v -0.028496 0.093352 0.160107
v -0.055956 0.079360 0.160107
v -0.077748 0.057568 0.160107
v -0.091739 0.030108 0.160107
v -0.096560 -0.000331 0.160107
v -0.091739 -0.030771 0.160107
v -0.077748 -0.058230 0.160107
v -0.055956 -0.080022 0.160107
v -0.028496 -0.094013 0.160107
v 0.001943 -0.098835 0.160107
v 0.032383 -0.094013 0.160107
v 0.059842 -0.080022 0.160107
v 0.081634 -0.058230 0.160107
v 0.095626 -0.030771 0.160107
v 0.100447 -0.000331 0.160107
v 0.001943 -0.000331 -0.131821
v 0.001943 -0.000331 0.160107
v -0.471764 0.633103 -0.043260
v -0.458368 0.643284 -0.034687
v -0.447737 0.651364 -0.021334
v -0.440911 0.656551 -0.004509
v -0.438559 0.658338 0.014143
v -0.440911 0.656551 0.032794
v -0.447737 0.651364 0.049620
v -0.458368 0.643284 0.062973
v -0.471764 0.633103 0.071546
v -0.486614 0.621817 0.074500
v -0.501463 0.610532 0.071546
v -0.514859 0.600351 0.062973
v -0.525490 0.592271 0.049620
v -0.532315 0.587084 0.032794
v -0.534668 0.585296 0.014143
v -0.532315 0.587084 -0.004509
v -0.525490 0.592271 -0.021334
v -0.514859 0.600351 -0.034687
v -0.501463 0.610532 -0.043260
v -0.486614 0.621817 -0.046214
v -0.026736 0.047536 -0.043260
v -0.013340 0.057718 -0.034687
v -0.002709 0.065797 -0.021334
v 0.004117 0.070984 -0.004509
v 0.006469 0.072771 0.014143
v 0.004117 0.070984 0.032794
v -0.002709 0.065797 0.049620
v -0.013340 0.057718 0.062973
v -0.026736 0.047536 0.071546
v -0.041586 0.036251 0.074500
v -0.056435 0.024965 0.071546
v -0.069831 0.014785 0.062973
v -0.080462 0.006705 0.049620
v -0.087288 0.001517 0.032794
v -0.089639 -0.000271 0.014143
v -0.087287 0.001517 -0.004509
v -0.080462 0.006705 -0.021334
v -0.069831 0.014785 -0.034687
v -0.056435 0.024965 -0.043260
v -0.041586 0.036251 -0.046214
v -0.486614 0.621817 0.014143
v -0.041586 0.036251 0.014143
vt 0.776648 0.383851
vt 0.780122 0.383851
vt 0.780122 0.434219
vt 0.776648 0.434219
vt 0.783596 0.383851
vt 0.783596 0.434219
vt 0.787070 0.383851
vt 0.787070 0.434219
vt 0.790544 0.383851
vt 0.790544 0.434219
vt 0.794017 0.383851
vt 0.794017 0.434219
vt 0.797491 0.383851
vt 0.797491 0.434219
vt 0.800965 0.383851
vt 0.800965 0.434219
vt 0.804439 0.383851
vt 0.804439 0.434219
vt 0.807913 0.383851
vt 0.807913 0.434219
vt 0.811387 0.383851
vt 0.811387 0.434219
vt 0.814861 0.383851
vt 0.814861 0.434219
vt 0.818334 0.383851
vt 0.818334 0.434219
vt 0.821808 0.383851
vt 0.821808 0.434219
vt 0.825282 0.383851
vt 0.825282 0.434219
vt 0.828756 0.383851
vt 0.828756 0.434219
vt 0.832230 0.383851
vt 0.832230 0.434219
vt 0.835704 0.383851
vt 0.835704 0.434219
vt 0.839178 0.383851
vt 0.839178 0.434219
vt 0.842651 0.383851
vt 0.842651 0.434219
vt 0.846125 0.383851
vt 0.846125 0.434219
vt 0.846517 0.350529
vt 0.852685 0.356379
vt 0.811387 0.362864
vt 0.836910 0.345886
vt 0.824805 0.342905
vt 0.811387 0.341878
vt 0.797968 0.342905
vt 0.785863 0.345886
vt 0.776257 0.350529
vt 0.770089 0.356379
vt 0.767963 0.362864
vt 0.770089 0.369350
vt 0.776257 0.375200
vt 0.785863 0.379843
vt 0.797968 0.382824
vt 0.811387 0.383851
vt 0.824805 0.382824
vt 0.836910 0.379843
vt 0.846517 0.375200
vt 0.852685 0.369350
vt 0.854810 0.362864
vt 0.852685 0.461691
vt 0.846517 0.467542
vt 0.811387 0.455206
vt 0.836910 0.472185
vt 0.824805 0.475166
vt 0.811387 0.476193
vt 0.797968 0.475166
vt 0.785863 0.472185
vt 0.776257 0.467542
vt 0.770089 0.461691
vt 0.767963 0.455206
vt 0.770089 0.448721
vt 0.776257 0.442870
vt 0.785863 0.438227
vt 0.797968 0.435246
vt 0.811387 0.434219
vt 0.824805 0.435246
vt 0.836910 0.438227
vt 0.846517 0.442870
vt 0.852685 0.448721
vt 0.854810 0.455206
vt 0.607312 1.019741
vt 0.636033 1.015464
vt 0.647643 0.016513
vt 0.618921 0.020791
vt 0.658825 1.012068
vt 0.670436 0.013118
vt 0.673460 1.009888
vt 0.685069 0.010938
vt 0.678502 1.009137
vt 0.690112 0.010186
vt 0.673459 1.009888
vt 0.685070 0.010938
vt 0.658825 1.012068
vt 0.670435 0.013118
vt 0.636033 1.015464
vt 0.647643 0.016513
vt 0.607312 1.019741
vt 0.618921 0.020791
vt 0.575475 1.024484
vt 0.587085 0.025534
vt 0.543637 1.029226
vt 0.555247 0.030277
vt 0.514917 1.033504
vt 0.526528 0.034554
vt 0.492124 1.036900
vt 0.503734 0.037949
vt 0.477491 1.039080
vt 0.489101 0.040130
vt 0.472447 1.039831
vt 0.484058 0.040880
vt 0.477491 1.039080
vt 0.489101 0.040129
vt 0.492124 1.036900
vt 0.503734 0.037949
vt 0.514917 1.033504
vt 0.526528 0.034554
vt 0.543637 1.029226
vt 0.555247 0.030277
vt 0.575475 1.024484
vt 0.587085 0.025534
vt 0.846517 0.350529
vt 0.852685 0.356379
vt 0.811387 0.362864
vt 0.836910 0.345886
vt 0.824805 0.342905
vt 0.811387 0.341878
vt 0.797968 0.342905
vt 0.785863 0.345886
vt 0.776257 0.350529
vt 0.770089 0.356379
vt 0.767963 0.362864
vt 0.770089 0.369350
vt 0.776257 0.375200
vt 0.785863 0.379843
vt 0.797968 0.382824
vt 0.811387 0.383851
vt 0.824805 0.382824
vt 0.836910 0.379843
vt 0.846517 0.375200
vt 0.852685 0.369350
vt 0.854810 0.362864
vt 0.852685 0.461691
vt 0.846517 0.467542
vt 0.811387 0.455206
vt 0.836910 0.472185
vt 0.824805 0.475166
vt 0.811387 0.476193
vt 0.797968 0.475166
vt 0.785863 0.472185
vt 0.776257 0.467542
vt 0.770089 0.461691
vt 0.767963 0.455206
vt 0.770089 0.448721
vt 0.776257 0.442870
vt 0.785863 0.438227
vt 0.797968 0.435246
vt 0.811387 0.434219
vt 0.824805 0.435246
vt 0.836910 0.438227
vt 0.846517 0.442870
vt 0.852685 0.448721
vt 0.854810 0.455206
vn 0.951057 0.309016 0.000000
vn 0.809016 0.587786 0.000000
vn 0.809016 0.587787 0.000000
vn 0.951057 0.309016 0.000000
vn 0.809016 0.587786 0.000000
vn 0.587788 0.809015 0.000000
vn 0.587788 0.809015 0.000000
vn 0.809016 0.587787 0.000000
vn 0.587788 0.809015 0.000000
vn 0.309019 0.951056 0.000000
vn 0.309019 0.951056 0.000000
vn 0.587788 0.809015 0.000000
vn 0.309019 0.951056 0.000000
vn 0.000000 1.000000 0.000000
vn 0.000000 1.000000 0.000000
vn 0.309019 0.951056 0.000000
vn 0.000000 1.000000 0.000000
vn -0.309019 0.951056 0.000000
vn -0.309019 0.951056 0.000000
vn 0.000000 1.000000 0.000000
vn -0.309019 0.951056 0.000000
vn -0.587788 0.809015 0.000000
vn -0.587788 0.809015 0.000000
vn -0.309019 0.951056 0.000000
vn -0.587788 0.809015 0.000000
vn -0.809016 0.587787 -0.000000
vn -0.809016 0.587787 -0.000000
vn -0.587788 0.809015 0.000000
vn -0.809016 0.587787 -0.000000
vn -0.951057 0.309017 -0.000000
vn -0.951057 0.309017 -0.000000
vn -0.809016 0.587787 -0.000000
vn -0.951057 0.309017 -0.000000
vn -1.000000 0.000000 0.000000
vn -1.000000 0.000000 0.000000
vn -0.951057 0.309017 -0.000000
vn -1.000000 0.000000 0.000000
vn -0.951056 -0.309020 0.000000
vn -0.951056 -0.309020 0.000000
vn -1.000000 0.000000 0.000000
vn -0.951056 -0.309020 0.000000
vn -0.809016 -0.587787 0.000000
vn -0.809016 -0.587787 0.000000
vn -0.951056 -0.309020 0.000000
vn -0.809016 -0.587787 0.000000
vn -0.587783 -0.809019 0.000000
vn -0.587783 -0.809019 0.000000
vn -0.809016 -0.587787 0.000000
vn -0.587783 -0.809019 0.000000
vn -0.309019 -0.951056 0.000000
vn -0.309019 -0.951056 0.000000
vn -0.587783 -0.809019 0.000000
vn -0.309019 -0.951056 0.000000
vn 0.000000 -1.000000 0.000000
vn 0.000000 -1.000000 0.000000
vn -0.309019 -0.951056 0.000000
vn 0.000000 -1.000000 0.000000
vn 0.309019 -0.951056 0.000000
vn 0.309019 -0.951056 0.000000
vn 0.000000 -1.000000 0.000000
vn 0.309019 -0.951056 0.000000
vn 0.587783 -0.809019 0.000000
vn 0.587783 -0.809019 0.000000
vn 0.309019 -0.951056 0.000000
vn 0.587783 -0.809019 0.000000
vn 0.809016 -0.587787 0.000000
vn 0.809016 -0.587786 0.000000
vn 0.587783 -0.809019 0.000000
vn 0.809016 -0.587787 0.000000
vn 0.951056 -0.309018 0.000000
vn 0.951056 -0.309018 0.000000
vn 0.809016 -0.587786 0.000000
vn 0.951056 -0.309018 0.000000
vn 1.000000 0.000000 0.000000
vn 1.000000 0.000000 0.000000
vn 0.951056 -0.309018 0.000000
vn 1.000000 0.000000 0.000000
vn 0.951057 0.309016 0.000000
vn 0.951057 0.309016 0.000000
vn 1.000000 0.000000 0.000000
vn 0.000000 0.000000 -1.000000
vn 0.000000 0.000000 -1.000000
vn 0.000000 0.000000 -1.000000
vn -0.000002 0.000001 -1.000000
vn 0.000000 0.000000 -1.000000
vn 0.000000 0.000000 -1.000000
vn 0.000000 0.000001 -1.000000
vn -0.000002 0.000001 -1.000000
vn 0.000000 0.000000 -1.000000
vn 0.000002 0.000000 -1.000000
vn 0.000000 0.000001 -1.000000
vn 0.000000 0.000000 -1.000000
vn 0.000000 0.000000 -1.000000
vn 0.000002 0.000000 -1.000000
vn 0.000000 0.000000 -1.000000
vn 0.000000 0.000000 -1.000000
vn 0.000000 0.000000 -1.000000
vn 0.000000 0.000000 -1.000000
vn 0.000000 0.000000 -1.000000
vn 0.000000 0.000000 -1.000000
vn 0.000000 0.000000 -1.000000
vn 0.000000 0.000000 -1.000000
vn 0.000000 0.000000 -1.000000
vn 0.000000 0.000000 -1.000000
vn 0.000000 0.000000 -1.000000
vn 0.000000 0.000000 -1.000000
vn 0.000000 0.000000 -1.000000
vn 0.000000 0.000000 -1.000000
vn 0.000000 0.000000 -1.000000
vn 0.000000 0.000000 -1.000000
vn 0.000000 0.000000 -1.000000
vn 0.000000 0.000000 -1.000000
vn 0.000000 0.000000 -1.000000
vn 0.000000 0.000000 -1.000000
vn 0.000000 0.000000 -1.000000
vn 0.000000 0.000000 -1.000000
vn 0.000000 0.000000 -1.000000
vn 0.000000 0.000000 -1.000000
vn 0.000000 0.000000 -1.000000
vn -0.000000 0.000000 -1.000000
vn 0.000000 0.000000 -1.000000
vn 0.000000 0.000000 -1.000000
vn -0.000000 0.000000 -1.000000
vn -0.000000 0.000000 -1.000000
vn 0.000000 0.000000 -1.000000
vn 0.000000 0.000000 -1.000000
vn -0.000000 0.000000 -1.000000
vn 0.000000 0.000000 -1.000000
vn 0.000000 0.000000 -1.000000
vn 0.000000 0.000000 -1.000000
vn 0.000000 0.000000 -1.000000
vn 0.000000 0.000000 -1.000000
vn 0.000000 0.000000 -1.000000
vn 0.000000 0.000000 -1.000000
vn 0.000000 0.000000 -1.000000
vn 0.000000 0.000000 -1.000000
vn 0.000000 0.000000 -1.000000
vn 0.000000 0.000000 -1.000000
vn 0.000000 0.000000 -1.000000
vn 0.000000 0.000000 -1.000000
vn 0.000000 0.000000 1.000000
vn 0.000000 0.000000 1.000000
vn 0.000000 -0.000000 1.000000
vn 0.000000 0.000000 1.000000
vn 0.000000 0.000000 1.000000
vn 0.000000 -0.000000 1.000000
vn 0.000000 0.000000 1.000000
vn 0.000002 -0.000001 1.000000
vn 0.000000 -0.000000 1.000000
vn 0.000002 -0.000001 1.000000
vn 0.000002 -0.000001 1.000000
vn 0.000000 -0.000000 1.000000
vn 0.000002 -0.000001 1.000000
vn 0.000000 -0.000001 1.000000
vn 0.000000 -0.000000 1.000000
vn 0.000000 -0.000001 1.000000
vn -0.000001 -0.000002 1.000000
vn 0.000000 -0.000000 1.000000
vn -0.000001 -0.000002 1.000000
vn -0.000001 -0.000002 1.000000
vn 0.000000 -0.000000 1.000000
vn -0.000001 -0.000002 1.000000
vn 0.000000 0.000000 1.000000
vn 0.000000 -0.000000 1.000000
vn 0.000000 0.000000 1.000000
vn 0.000000 0.000000 1.000000
vn 0.000000 -0.000000 1.000000
vn 0.000000 0.000000 1.000000
vn 0.000000 0.000000 1.000000
vn 0.000000 -0.000000 1.000000
vn 0.000000 0.000000 1.000000
vn 0.000000 0.000000 1.000000
vn 0.000000 -0.000000 1.000000
vn 0.000000 0.000000 1.000000
vn 0.000000 0.000000 1.000000
vn 0.000000 -0.000000 1.000000
vn 0.000000 0.000000 1.000000
vn -0.000002 0.000001 1.000000
vn 0.000000 -0.000000 1.000000
vn -0.000002 0.000001 1.000000
vn -0.000002 0.000001 1.000000
vn 0.000000 -0.000000 1.000000
vn -0.000002 0.000001 1.000000
vn 0.000002 0.000002 1.000000
vn 0.000000 -0.000000 1.000000
vn 0.000002 0.000002 1.000000
vn 0.000002 0.000001 1.000000
vn 0.000000 -0.000000 1.000000
vn 0.000002 0.000001 1.000000
vn 0.000000 0.000000 1.000000
vn 0.000000 -0.000000 1.000000
vn 0.000000 0.000000 1.000000
vn 0.000000 0.000000 1.000000
vn 0.000000 -0.000000 1.000000
vn 0.000000 0.000000 1.000000
vn 0.000000 0.000000 1.000000
vn 0.000000 -0.000000 1.000000
vn 0.000000 0.000000 1.000000
vn 0.000000 0.000000 1.000000
vn 0.000000 -0.000000 1.000000
vn 0.246026 0.186979 -0.951057
vn 0.467971 0.355656 -0.809019
vn 0.467970 0.355655 -0.809020
vn 0.246026 0.186979 -0.951057
vn 0.467971 0.355656 -0.809019
vn 0.644114 0.489524 -0.587779
vn 0.644115 0.489524 -0.587777
vn 0.467970 0.355655 -0.809020
vn 0.644114 0.489524 -0.587779
vn 0.757198 0.575467 -0.309012
vn 0.757199 0.575467 -0.309011
vn 0.644115 0.489524 -0.587777
vn 0.757198 0.575467 -0.309012
vn 0.796164 0.605081 0.000000
vn 0.796164 0.605081 0.000001
vn 0.757199 0.575467 -0.309011
vn 0.796164 0.605081 0.000000
vn 0.757196 0.575466 0.309020
vn 0.757196 0.575466 0.309019
vn 0.796164 0.605081 0.000001
vn 0.757196 0.575466 0.309020
vn 0.644114 0.489524 0.587778
vn 0.644116 0.489525 0.587776
vn 0.757196 0.575466 0.309019
vn 0.644114 0.489524 0.587778
vn 0.467975 0.355659 0.809016
vn 0.467974 0.355658 0.809016
vn 0.644116 0.489525 0.587776
vn 0.467975 0.355659 0.809016
vn 0.246027 0.186979 0.951057
vn 0.246027 0.186979 0.951057
vn 0.467974 0.355658 0.809016
vn 0.246027 0.186979 0.951057
vn 0.000000 0.000000 1.000000
vn 0.000001 0.000000 1.000000
vn 0.246027 0.186979 0.951057
vn 0.000000 0.000000 1.000000
vn -0.246033 -0.186984 0.951055
vn -0.246033 -0.186984 0.951055
vn 0.000001 0.000000 1.000000
vn -0.246033 -0.186984 0.951055
vn -0.467974 -0.355658 0.809016
vn -0.467974 -0.355658 0.809016
vn -0.246033 -0.186984 0.951055
vn -0.467974 -0.355658 0.809016
vn -0.644105 -0.489517 0.587794
vn -0.644105 -0.489517 0.587794
vn -0.467974 -0.355658 0.809016
vn -0.644105 -0.489517 0.587794
vn -0.757198 -0.575467 0.309012
vn -0.757199 -0.575467 0.309011
vn -0.644105 -0.489517 0.587794
vn -0.757198 -0.575467 0.309012
vn -0.796164 -0.605081 -0.000009
vn -0.796164 -0.605081 -0.000009
vn -0.757199 -0.575467 0.309011
vn -0.796164 -0.605081 -0.000009
vn -0.757198 -0.575467 -0.309012
vn -0.757198 -0.575468 -0.309011
vn -0.796164 -0.605081 -0.000009
vn -0.757198 -0.575467 -0.309012
vn -0.644108 -0.489520 -0.587789
vn -0.644108 -0.489520 -0.587788
vn -0.757198 -0.575468 -0.309011
vn -0.644108 -0.489520 -0.587789
vn -0.467974 -0.355658 -0.809016
vn -0.467974 -0.355658 -0.809016
vn -0.644108 -0.489520 -0.587788
vn -0.467974 -0.355658 -0.809016
vn -0.246032 -0.186983 -0.951055
vn -0.246032 -0.186983 -0.951055
vn -0.467974 -0.355658 -0.809016
vn -0.246032 -0.186983 -0.951055
vn 0.000000 0.000000 -1.000000
vn 0.000001 0.000000 -1.000000
vn -0.246032 -0.186983 -0.951055
vn 0.000000 0.000000 -1.000000
vn 0.246026 0.186979 -0.951057
vn 0.246026 0.186979 -0.951057
vn 0.000001 0.000000 -1.000000
vn -0.605088 0.796158 -0.000013
vn -0.605081 0.796164 -0.000013
vn -0.605080 0.796165 -0.000005
vn -0.605075 0.796168 0.000000
vn -0.605088 0.796158 -0.000013
vn -0.605080 0.796165 -0.000005
vn -0.605075 0.796168 0.000000
vn -0.605075 0.796168 0.000000
vn -0.605080 0.796165 -0.000005
vn -0.605080 0.796164 -0.000026
vn -0.605075 0.796168 0.000000
vn -0.605080 0.796165 -0.000005
vn -0.605076 0.796167 -0.000026
vn -0.605080 0.796164 -0.000026
vn -0.605080 0.796165 -0.000005
vn -0.605076 0.796167 0.000000
vn -0.605076 0.796167 -0.000026
vn -0.605080 0.796165 -0.000005
vn -0.605088 0.796158 0.000013
vn -0.605076 0.796167 0.000000
vn -0.605080 0.796165 -0.000005
vn -0.605082 0.796163 0.000013
vn -0.605088 0.796158 0.000013
vn -0.605080 0.796165 -0.000005
vn -0.605076 0.796168 0.000000
vn -0.605082 0.796163 0.000013
vn -0.605080 0.796165 -0.000005
vn -0.605081 0.796164 -0.000013
vn -0.605076 0.796168 0.000000
vn -0.605080 0.796165 -0.000005
vn -0.605081 0.796164 -0.000000
vn -0.605081 0.796164 -0.000013
vn -0.605080 0.796165 -0.000005
vn -0.605081 0.796164 -0.000013
vn -0.605081 0.796164 -0.000000
vn -0.605080 0.796165 -0.000005
vn -0.605080 0.796165 -0.000026
vn -0.605081 0.796164 -0.000013
vn -0.605080 0.796165 -0.000005
vn -0.605081 0.796164 0.000000
vn -0.605080 0.796165 -0.000026
vn -0.605080 0.796165 -0.000005
vn -0.605080 0.796165 0.000013
vn -0.605081 0.796164 0.000000
vn -0.605080 0.796165 -0.000005
vn -0.605081 0.796164 0.000000
vn -0.605080 0.796165 0.000013
vn -0.605080 0.796165 -0.000005
vn -0.605081 0.796164 -0.000007
vn -0.605081 0.796164 0.000000
vn -0.605080 0.796165 -0.000005
vn -0.605082 0.796163 0.000007
vn -0.605081 0.796164 -0.000007
vn -0.605080 0.796165 -0.000005
vn -0.605076 0.796168 0.000000
vn -0.605082 0.796163 0.000007
vn -0.605080 0.796165 -0.000005
vn -0.605081 0.796164 -0.000013
vn -0.605076 0.796168 0.000000
vn -0.605080 0.796165 -0.000005
vn 0.605079 -0.796165 0.000000
vn 0.605085 -0.796161 0.000000
vn 0.605080 -0.796165 0.000000
vn 0.605085 -0.796161 0.000000
vn 0.605077 -0.796167 0.000013
vn 0.605080 -0.796165 0.000000
vn 0.605077 -0.796167 0.000013
vn 0.605073 -0.796170 0.000000
vn 0.605080 -0.796165 0.000000
vn 0.605073 -0.796170 0.000000
vn 0.605072 -0.796171 -0.000013
vn 0.605080 -0.796165 0.000000
vn 0.605072 -0.796171 -0.000013
vn 0.605072 -0.796171 0.000000
vn 0.605080 -0.796165 0.000000
vn 0.605072 -0.796171 0.000000
vn 0.605069 -0.796173 0.000000
vn 0.605080 -0.796165 0.000000
vn 0.605069 -0.796173 0.000000
vn 0.605078 -0.796166 0.000000
vn 0.605080 -0.796165 0.000000
vn 0.605078 -0.796166 0.000000
vn 0.605079 -0.796165 0.000000
vn 0.605080 -0.796165 0.000000
vn 0.605079 -0.796165 0.000000
vn 0.605076 -0.796167 0.000000
vn 0.605080 -0.796165 0.000000
vn 0.605076 -0.796167 0.000000
vn 0.605085 -0.796161 0.000000
vn 0.605080 -0.796165 0.000000
vn 0.605085 -0.796161 0.000000
vn 0.605084 -0.796161 -0.000013
vn 0.605080 -0.796165 0.000000
vn 0.605084 -0.796161 -0.000013
vn 0.605081 -0.796164 0.000000
vn 0.605080 -0.796165 0.000000
vn 0.605081 -0.796164 0.000000
vn 0.605084 -0.796162 0.000013
vn 0.605080 -0.796165 0.000000
vn 0.605084 -0.796162 0.000013
vn 0.605090 -0.796157 0.000000
vn 0.605080 -0.796165 0.000000
vn 0.605090 -0.796157 0.000000
vn 0.605087 -0.796159 -0.000013
vn 0.605080 -0.796165 0.000000
vn 0.605087 -0.796159 -0.000013
vn 0.605085 -0.796161 0.000000
vn 0.605080 -0.796165 0.000000
vn 0.605085 -0.796161 0.000000
vn 0.605085 -0.796161 0.000013
vn 0.605080 -0.796165 0.000000
vn 0.605085 -0.796161 0.000013
vn 0.605085 -0.796161 0.000000
vn 0.605080 -0.796165 0.000000
vn 0.605085 -0.796161 0.000000
vn 0.605076 -0.796167 0.000000
vn 0.605080 -0.796165 0.000000
vn 0.605076 -0.796167 0.000000
vn 0.605079 -0.796165 0.000000
vn 0.605080 -0.796165 0.000000
s off
g pCylinder22
usemtl phong6SG
f 1/1/1 2/2/2 22/3/3 21/4/4
f 2/2/5 3/5/6 23/6/7 22/3/8
f 3/5/9 4/7/10 24/8/11 23/6/12
f 4/7/13 5/9/14 25/10/15 24/8/16
f 5/9/17 6/11/18 26/12/19 25/10/20
f 6/11/21 7/13/22 27/14/23 26/12/24
f 7/13/25 8/15/26 28/16/27 27/14/28
f 8/15/29 9/17/30 29/18/31 28/16/32
f 9/17/33 10/19/34 30/20/35 29/18/36
f 10/19/37 11/21/38 31/22/39 30/20/40
f 11/21/41 12/23/42 32/24/43 31/22/44
f 12/23/45 13/25/46 33/26/47 32/24/48
f 13/25/49 14/27/50 34/28/51 33/26/52
f 14/27/53 15/29/54 35/30/55 34/28/56
f 15/29/57 16/31/58 36/32/59 35/30/60
f 16/31/61 17/33/62 37/34/63 36/32/64
f 17/33/65 18/35/66 38/36/67 37/34/68
f 18/35/69 19/37/70 39/38/71 38/36/72
f 19/37/73 20/39/74 40/40/75 39/38/76
f 20/39/77 1/41/78 21/42/79 40/40/80
f 2/43/81 1/44/82 41/45/83
f 3/46/84 2/43/85 41/45/86
f 4/47/87 3/46/88 41/45/89
f 5/48/90 4/47/91 41/45/92
f 6/49/93 5/48/94 41/45/95
f 7/50/96 6/49/97 41/45/98
f 8/51/99 7/50/100 41/45/101
f 9/52/102 8/51/103 41/45/104
f 10/53/105 9/52/106 41/45/107
f 11/54/108 10/53/109 41/45/110
f 12/55/111 11/54/112 41/45/113
f 13/56/114 12/55/115 41/45/116
f 14/57/117 13/56/118 41/45/119
f 15/58/120 14/57/121 41/45/122
f 16/59/123 15/58/124 41/45/125
f 17/60/126 16/59/127 41/45/128
f 18/61/129 17/60/130 41/45/131
f 19/62/132 18/61/133 41/45/134
f 20/63/135 19/62/136 41/45/137
f 1/44/138 20/63/139 41/45/140
f 21/64/141 22/65/142 42/66/143
f 22/65/144 23/67/145 42/66/146
f 23/67/147 24/68/148 42/66/149
f 24/68/150 25/69/151 42/66/152
f 25/69/153 26/70/154 42/66/155
f 26/70/156 27/71/157 42/66/158
f 27/71/159 28/72/160 42/66/161
f 28/72/162 29/73/163 42/66/164
f 29/73/165 30/74/166 42/66/167
f 30/74/168 31/75/169 42/66/170
f 31/75/171 32/76/172 42/66/173
f 32/76/174 33/77/175 42/66/176
f 33/77/177 34/78/178 42/66/179
f 34/78/180 35/79/181 42/66/182
f 35/79/183 36/80/184 42/66/185
f 36/80/186 37/81/187 42/66/188
f 37/81/189 38/82/190 42/66/191
f 38/82/192 39/83/193 42/66/194
f 39/83/195 40/84/196 42/66/197
f 40/84/198 21/64/199 42/66/200
f 43/85/201 44/86/202 64/87/203 63/88/204
f 44/86/205 45/89/206 65/90/207 64/87/208
f 45/89/209 46/91/210 66/92/211 65/90/212
f 46/91/213 47/93/214 67/94/215 66/92/216
f 47/93/217 48/95/218 68/96/219 67/94/220
f 48/95/221 49/97/222 69/98/223 68/96/224
f 49/97/225 50/99/226 70/100/227 69/98/228
f 50/99/229 51/101/230 71/102/231 70/100/232
f 51/101/233 52/103/234 72/104/235 71/102/236
f 52/103/237 53/105/238 73/106/239 72/104/240
f 53/105/241 54/107/242 74/108/243 73/106/244
f 54/107/245 55/109/246 75/110/247 74/108/248
f 55/109/249 56/111/250 76/112/251 75/110/252
f 56/111/253 57/113/254 77/114/255 76/112/256
f 57/113/257 58/115/258 78/116/259 77/114/260
f 58/115/261 59/117/262 79/118/263 78/116/264
f 59/117/265 60/119/266 80/120/267 79/118/268
f 60/119/269 61/121/270 81/122/271 80/120/272
f 61/121/273 62/123/274 82/124/275 81/122/276
f 62/123/277 43/85/278 63/88/279 82/124/280
f 44/125/281 43/126/282 83/127/283
f 45/128/284 44/125/285 83/127/286
f 46/129/287 45/128/288 83/127/289
f 47/130/290 46/129/291 83/127/292
f 48/131/293 47/130/294 83/127/295
f 49/132/296 48/131/297 83/127/298
f 50/133/299 49/132/300 83/127/301
f 51/134/302 50/133/303 83/127/304
f 52/135/305 51/134/306 83/127/307
f 53/136/308 52/135/309 83/127/310
f 54/137/311 53/136/312 83/127/313
f 55/138/314 54/137/315 83/127/316
f 56/139/317 55/138/318 83/127/319
f 57/140/320 56/139/321 83/127/322
f 58/141/323 57/140/324 83/127/325
f 59/142/326 58/141/327 83/127/328
f 60/143/329 59/142/330 83/127/331
f 61/144/332 60/143/333 83/127/334
f 62/145/335 61/144/336 83/127/337
f 43/126/338 62/145/339 83/127/340
f 63/146/341 64/147/342 84/148/343
f 64/147/344 65/149/345 84/148/346
f 65/149/347 66/150/348 84/148/349
f 66/150/350 67/151/351 84/148/352
f 67/151/353 68/152/354 84/148/355
f 68/152/356 69/153/357 84/148/358
f 69/153/359 70/154/360 84/148/361
f 70/154/362 71/155/363 84/148/364
f 71/155/365 72/156/366 84/148/367
f 72/156/368 73/157/369 84/148/370
f 73/157/371 74/158/372 84/148/373
f 74/158/374 75/159/375 84/148/376
f 75/159/377 76/160/378 84/148/379
f 76/160/380 77/161/381 84/148/382
f 77/161/383 78/162/384 84/148/385
f 78/162/386 79/163/387 84/148/388
f 79/163/389 80/164/390 84/148/391
f 80/164/392 81/165/393 84/148/394
f 81/165/395 82/166/396 84/148/397
f 82/166/398 63/146/399 84/148/400
